<?xml version="1.0" encoding="UTF-8" standalone="no"?>
<!DOCTYPE svg PUBLIC "-//W3C//DTD SVG 1.1//EN"
 "http://www.w3.org/Graphics/SVG/1.1/DTD/svg11.dtd">
<!-- Generated by graphviz version 2.40.1 (20161225.0304)
 -->
<!-- Title: G Pages: 1 -->
<svg width="1860pt" height="1052pt"
 viewBox="0.00 0.00 1859.76 1052.00" xmlns="http://www.w3.org/2000/svg" xmlns:xlink="http://www.w3.org/1999/xlink">
<g id="graph0" class="graph" transform="scale(1 1) rotate(0) translate(4 1048)">
<title>G</title>
<polygon fill="#ffffff" stroke="transparent" points="-4,4 -4,-1048 1855.7562,-1048 1855.7562,4 -4,4"/>
<!-- 0 -->
<g id="node1" class="node">
<title>0</title>
<ellipse fill="none" stroke="#000000" cx="1117.9679" cy="-1026" rx="27" ry="18"/>
<text text-anchor="middle" x="1117.9679" y="-1021.8" font-family="Times,serif" font-size="14.00" fill="#000000">Hips</text>
</g>
<!-- 1 -->
<g id="node2" class="node">
<title>1</title>
<ellipse fill="none" stroke="#000000" cx="1117.9679" cy="-954" rx="31.9567" ry="18"/>
<text text-anchor="middle" x="1117.9679" y="-949.8" font-family="Times,serif" font-size="14.00" fill="#000000">Pelvis</text>
</g>
<!-- 1&#45;&gt;0 -->
<g id="edge1" class="edge">
<title>1&#45;&gt;0</title>
<path fill="none" stroke="#000000" d="M1117.9679,-972.1686C1117.9679,-979.869 1117.9679,-989.0257 1117.9679,-997.5834"/>
<polygon fill="#000000" stroke="#000000" points="1114.468,-997.5867 1117.9679,-1007.5867 1121.468,-997.5868 1114.468,-997.5867"/>
</g>
<!-- 2 -->
<g id="node3" class="node">
<title>2</title>
<ellipse fill="none" stroke="#000000" cx="1117.9679" cy="-882" rx="30.0035" ry="18"/>
<text text-anchor="middle" x="1117.9679" y="-877.8" font-family="Times,serif" font-size="14.00" fill="#000000">Spine</text>
</g>
<!-- 2&#45;&gt;1 -->
<g id="edge2" class="edge">
<title>2&#45;&gt;1</title>
<path fill="none" stroke="#000000" d="M1117.9679,-900.1686C1117.9679,-907.869 1117.9679,-917.0257 1117.9679,-925.5834"/>
<polygon fill="#000000" stroke="#000000" points="1114.468,-925.5867 1117.9679,-935.5867 1121.468,-925.5868 1114.468,-925.5867"/>
</g>
<!-- 3 -->
<g id="node4" class="node">
<title>3</title>
<ellipse fill="none" stroke="#000000" cx="975.9679" cy="-810" rx="34.8458" ry="18"/>
<text text-anchor="middle" x="975.9679" y="-805.8" font-family="Times,serif" font-size="14.00" fill="#000000">Spine1</text>
</g>
<!-- 3&#45;&gt;2 -->
<g id="edge3" class="edge">
<title>3&#45;&gt;2</title>
<path fill="none" stroke="#000000" d="M1001.0278,-822.7064C1024.5704,-834.6435 1059.9228,-852.5687 1085.5924,-865.5843"/>
<polygon fill="#000000" stroke="#000000" points="1084.0699,-868.7364 1094.5717,-870.1371 1087.2355,-862.4931 1084.0699,-868.7364"/>
</g>
<!-- 4 -->
<g id="node5" class="node">
<title>4</title>
<ellipse fill="none" stroke="#000000" cx="934.9679" cy="-738" rx="34.8458" ry="18"/>
<text text-anchor="middle" x="934.9679" y="-733.8" font-family="Times,serif" font-size="14.00" fill="#000000">Spine2</text>
</g>
<!-- 4&#45;&gt;3 -->
<g id="edge4" class="edge">
<title>4&#45;&gt;3</title>
<path fill="none" stroke="#000000" d="M944.8929,-755.4292C949.7779,-764.0078 955.7662,-774.5238 961.1776,-784.0268"/>
<polygon fill="#000000" stroke="#000000" points="958.1445,-785.7734 966.1343,-792.7313 964.2274,-782.3095 958.1445,-785.7734"/>
</g>
<!-- 5 -->
<g id="node6" class="node">
<title>5</title>
<ellipse fill="none" stroke="#000000" cx="908.9679" cy="-666" rx="34.8458" ry="18"/>
<text text-anchor="middle" x="908.9679" y="-661.8" font-family="Times,serif" font-size="14.00" fill="#000000">Spine3</text>
</g>
<!-- 5&#45;&gt;4 -->
<g id="edge5" class="edge">
<title>5&#45;&gt;4</title>
<path fill="none" stroke="#000000" d="M915.3949,-683.7978C918.3012,-691.8459 921.8022,-701.5412 925.0349,-710.4933"/>
<polygon fill="#000000" stroke="#000000" points="921.8363,-711.9407 928.5248,-720.1575 928.4202,-709.5631 921.8363,-711.9407"/>
</g>
<!-- 6 -->
<g id="node7" class="node">
<title>6</title>
<ellipse fill="none" stroke="#000000" cx="895.9679" cy="-594" rx="28.5325" ry="18"/>
<text text-anchor="middle" x="895.9679" y="-589.8" font-family="Times,serif" font-size="14.00" fill="#000000">Neck</text>
</g>
<!-- 6&#45;&gt;5 -->
<g id="edge6" class="edge">
<title>6&#45;&gt;5</title>
<path fill="none" stroke="#000000" d="M899.2483,-612.1686C900.6387,-619.869 902.292,-629.0257 903.8371,-637.5834"/>
<polygon fill="#000000" stroke="#000000" points="900.4221,-638.3678 905.6433,-647.5867 907.3107,-637.1239 900.4221,-638.3678"/>
</g>
<!-- 7 -->
<g id="node8" class="node">
<title>7</title>
<ellipse fill="none" stroke="#000000" cx="712.9679" cy="-522" rx="28.5325" ry="18"/>
<text text-anchor="middle" x="712.9679" y="-517.8" font-family="Times,serif" font-size="14.00" fill="#000000">Head</text>
</g>
<!-- 7&#45;&gt;6 -->
<g id="edge7" class="edge">
<title>7&#45;&gt;6</title>
<path fill="none" stroke="#000000" d="M737.6481,-531.7102C769.6625,-544.3061 825.6732,-566.3431 861.7705,-580.5453"/>
<polygon fill="#000000" stroke="#000000" points="860.8,-583.9246 871.3872,-584.3289 863.363,-577.4106 860.8,-583.9246"/>
</g>
<!-- 8 -->
<g id="node9" class="node">
<title>8</title>
<ellipse fill="none" stroke="#000000" cx="700.9679" cy="-450" rx="67.6541" ry="18"/>
<text text-anchor="middle" x="700.9679" y="-445.8" font-family="Times,serif" font-size="14.00" fill="#000000">Bip01 HeadNub</text>
</g>
<!-- 8&#45;&gt;7 -->
<g id="edge8" class="edge">
<title>8&#45;&gt;7</title>
<path fill="none" stroke="#000000" d="M703.996,-468.1686C705.2992,-475.9875 706.8525,-485.3077 708.2975,-493.9779"/>
<polygon fill="#000000" stroke="#000000" points="704.8859,-494.7981 709.9823,-504.0866 711.7906,-493.6472 704.8859,-494.7981"/>
</g>
<!-- 9 -->
<g id="node10" class="node">
<title>9</title>
<ellipse fill="none" stroke="#000000" cx="827.9679" cy="-522" rx="56.5373" ry="18"/>
<text text-anchor="middle" x="827.9679" y="-517.8" font-family="Times,serif" font-size="14.00" fill="#000000">LeftShoulder</text>
</g>
<!-- 9&#45;&gt;6 -->
<g id="edge9" class="edge">
<title>9&#45;&gt;6</title>
<path fill="none" stroke="#000000" d="M844.4288,-539.4292C853.3243,-548.8479 864.4255,-560.6022 874.0445,-570.787"/>
<polygon fill="#000000" stroke="#000000" points="871.6394,-573.3379 881.0503,-578.2049 876.7286,-568.5315 871.6394,-573.3379"/>
</g>
<!-- 10 -->
<g id="node11" class="node">
<title>10</title>
<ellipse fill="none" stroke="#000000" cx="827.9679" cy="-450" rx="41.092" ry="18"/>
<text text-anchor="middle" x="827.9679" y="-445.8" font-family="Times,serif" font-size="14.00" fill="#000000">LeftArm</text>
</g>
<!-- 10&#45;&gt;9 -->
<g id="edge10" class="edge">
<title>10&#45;&gt;9</title>
<path fill="none" stroke="#000000" d="M827.9679,-468.1686C827.9679,-475.869 827.9679,-485.0257 827.9679,-493.5834"/>
<polygon fill="#000000" stroke="#000000" points="824.468,-493.5867 827.9679,-503.5867 831.468,-493.5868 824.468,-493.5867"/>
</g>
<!-- 11 -->
<g id="node12" class="node">
<title>11</title>
<ellipse fill="none" stroke="#000000" cx="754.9679" cy="-378" rx="57.0133" ry="18"/>
<text text-anchor="middle" x="754.9679" y="-373.8" font-family="Times,serif" font-size="14.00" fill="#000000">LeftForeArm</text>
</g>
<!-- 11&#45;&gt;10 -->
<g id="edge11" class="edge">
<title>11&#45;&gt;10</title>
<path fill="none" stroke="#000000" d="M772.6392,-395.4292C781.9197,-404.5826 793.4367,-415.9418 803.5562,-425.9227"/>
<polygon fill="#000000" stroke="#000000" points="801.3846,-428.6968 810.962,-433.2271 806.3001,-423.713 801.3846,-428.6968"/>
</g>
<!-- 12 -->
<g id="node13" class="node">
<title>12</title>
<ellipse fill="none" stroke="#000000" cx="547.9679" cy="-306" rx="42.0524" ry="18"/>
<text text-anchor="middle" x="547.9679" y="-301.8" font-family="Times,serif" font-size="14.00" fill="#000000">Lefthand</text>
</g>
<!-- 12&#45;&gt;11 -->
<g id="edge12" class="edge">
<title>12&#45;&gt;11</title>
<path fill="none" stroke="#000000" d="M580.7677,-317.4086C614.7132,-329.2157 668.0944,-347.7831 706.8235,-361.2541"/>
<polygon fill="#000000" stroke="#000000" points="705.7386,-364.5824 716.3334,-364.5619 708.0383,-357.9709 705.7386,-364.5824"/>
</g>
<!-- 13 -->
<g id="node14" class="node">
<title>13</title>
<ellipse fill="none" stroke="#000000" cx="135.9679" cy="-234" rx="73.9171" ry="18"/>
<text text-anchor="middle" x="135.9679" y="-229.8" font-family="Times,serif" font-size="14.00" fill="#000000">LeftHandThumb1</text>
</g>
<!-- 13&#45;&gt;12 -->
<g id="edge13" class="edge">
<title>13&#45;&gt;12</title>
<path fill="none" stroke="#000000" d="M192.5678,-245.6003C203.6316,-247.7886 215.1543,-250.0124 225.9679,-252 322.0814,-269.6661 434.7771,-288.0285 498.1301,-298.1372"/>
<polygon fill="#000000" stroke="#000000" points="497.8145,-301.631 508.2406,-299.7472 498.9154,-294.7181 497.8145,-301.631"/>
</g>
<!-- 14 -->
<g id="node15" class="node">
<title>14</title>
<ellipse fill="none" stroke="#000000" cx="134.9679" cy="-162" rx="73.9171" ry="18"/>
<text text-anchor="middle" x="134.9679" y="-157.8" font-family="Times,serif" font-size="14.00" fill="#000000">LeftHandThumb2</text>
</g>
<!-- 14&#45;&gt;13 -->
<g id="edge14" class="edge">
<title>14&#45;&gt;13</title>
<path fill="none" stroke="#000000" d="M135.2202,-180.1686C135.3272,-187.869 135.4544,-197.0257 135.5732,-205.5834"/>
<polygon fill="#000000" stroke="#000000" points="132.0735,-205.6363 135.7122,-215.5867 139.0728,-205.5391 132.0735,-205.6363"/>
</g>
<!-- 15 -->
<g id="node16" class="node">
<title>15</title>
<ellipse fill="none" stroke="#000000" cx="95.9679" cy="-90" rx="73.9171" ry="18"/>
<text text-anchor="middle" x="95.9679" y="-85.8" font-family="Times,serif" font-size="14.00" fill="#000000">LeftHandThumb3</text>
</g>
<!-- 15&#45;&gt;14 -->
<g id="edge15" class="edge">
<title>15&#45;&gt;14</title>
<path fill="none" stroke="#000000" d="M105.8092,-108.1686C110.2306,-116.3312 115.5383,-126.13 120.4064,-135.1173"/>
<polygon fill="#000000" stroke="#000000" points="117.4244,-136.9607 125.2648,-144.0866 123.5794,-133.6266 117.4244,-136.9607"/>
</g>
<!-- 16 -->
<g id="node17" class="node">
<title>16</title>
<ellipse fill="none" stroke="#000000" cx="83.9679" cy="-18" rx="83.9358" ry="18"/>
<text text-anchor="middle" x="83.9679" y="-13.8" font-family="Times,serif" font-size="14.00" fill="#000000">Bip01 L Finger0Nub</text>
</g>
<!-- 16&#45;&gt;15 -->
<g id="edge16" class="edge">
<title>16&#45;&gt;15</title>
<path fill="none" stroke="#000000" d="M86.996,-36.1686C88.2794,-43.869 89.8055,-53.0257 91.2318,-61.5834"/>
<polygon fill="#000000" stroke="#000000" points="87.8026,-62.2982 92.899,-71.5867 94.7073,-61.1474 87.8026,-62.2982"/>
</g>
<!-- 17 -->
<g id="node18" class="node">
<title>17</title>
<ellipse fill="none" stroke="#000000" cx="303.9679" cy="-234" rx="68.596" ry="18"/>
<text text-anchor="middle" x="303.9679" y="-229.8" font-family="Times,serif" font-size="14.00" fill="#000000">LeftHandIndex1</text>
</g>
<!-- 17&#45;&gt;12 -->
<g id="edge17" class="edge">
<title>17&#45;&gt;12</title>
<path fill="none" stroke="#000000" d="M349.5762,-247.4582C393.5967,-260.4478 459.8204,-279.9893 503.4646,-292.8679"/>
<polygon fill="#000000" stroke="#000000" points="502.6496,-296.2765 513.2314,-295.7499 504.6308,-289.5627 502.6496,-296.2765"/>
</g>
<!-- 18 -->
<g id="node19" class="node">
<title>18</title>
<ellipse fill="none" stroke="#000000" cx="299.9679" cy="-162" rx="68.596" ry="18"/>
<text text-anchor="middle" x="299.9679" y="-157.8" font-family="Times,serif" font-size="14.00" fill="#000000">LeftHandIndex2</text>
</g>
<!-- 18&#45;&gt;17 -->
<g id="edge18" class="edge">
<title>18&#45;&gt;17</title>
<path fill="none" stroke="#000000" d="M300.9773,-180.1686C301.4051,-187.869 301.9138,-197.0257 302.3892,-205.5834"/>
<polygon fill="#000000" stroke="#000000" points="298.8955,-205.7963 302.9449,-215.5867 305.8848,-205.408 298.8955,-205.7963"/>
</g>
<!-- 19 -->
<g id="node20" class="node">
<title>19</title>
<ellipse fill="none" stroke="#000000" cx="281.9679" cy="-90" rx="68.596" ry="18"/>
<text text-anchor="middle" x="281.9679" y="-85.8" font-family="Times,serif" font-size="14.00" fill="#000000">LeftHandIndex3</text>
</g>
<!-- 19&#45;&gt;18 -->
<g id="edge19" class="edge">
<title>19&#45;&gt;18</title>
<path fill="none" stroke="#000000" d="M286.5101,-108.1686C288.4563,-115.9537 290.7747,-125.2271 292.9342,-133.8653"/>
<polygon fill="#000000" stroke="#000000" points="289.5437,-134.7342 295.3646,-143.5867 296.3346,-133.0364 289.5437,-134.7342"/>
</g>
<!-- 20 -->
<g id="node21" class="node">
<title>20</title>
<ellipse fill="none" stroke="#000000" cx="269.9679" cy="-18" rx="83.9358" ry="18"/>
<text text-anchor="middle" x="269.9679" y="-13.8" font-family="Times,serif" font-size="14.00" fill="#000000">Bip01 L Finger1Nub</text>
</g>
<!-- 20&#45;&gt;19 -->
<g id="edge20" class="edge">
<title>20&#45;&gt;19</title>
<path fill="none" stroke="#000000" d="M272.996,-36.1686C274.2794,-43.869 275.8055,-53.0257 277.2318,-61.5834"/>
<polygon fill="#000000" stroke="#000000" points="273.8026,-62.2982 278.899,-71.5867 280.7073,-61.1474 273.8026,-62.2982"/>
</g>
<!-- 21 -->
<g id="node22" class="node">
<title>21</title>
<ellipse fill="none" stroke="#000000" cx="467.9679" cy="-234" rx="73.9171" ry="18"/>
<text text-anchor="middle" x="467.9679" y="-229.8" font-family="Times,serif" font-size="14.00" fill="#000000">LeftHandMiddle1</text>
</g>
<!-- 21&#45;&gt;12 -->
<g id="edge21" class="edge">
<title>21&#45;&gt;12</title>
<path fill="none" stroke="#000000" d="M487.3337,-251.4292C497.8539,-260.8974 510.9963,-272.7256 522.3537,-282.9472"/>
<polygon fill="#000000" stroke="#000000" points="520.1028,-285.6302 529.8771,-289.7183 524.7856,-280.4271 520.1028,-285.6302"/>
</g>
<!-- 22 -->
<g id="node23" class="node">
<title>22</title>
<ellipse fill="none" stroke="#000000" cx="460.9679" cy="-162" rx="73.9171" ry="18"/>
<text text-anchor="middle" x="460.9679" y="-157.8" font-family="Times,serif" font-size="14.00" fill="#000000">LeftHandMiddle2</text>
</g>
<!-- 22&#45;&gt;21 -->
<g id="edge22" class="edge">
<title>22&#45;&gt;21</title>
<path fill="none" stroke="#000000" d="M462.7343,-180.1686C463.4829,-187.869 464.3732,-197.0257 465.2052,-205.5834"/>
<polygon fill="#000000" stroke="#000000" points="461.7264,-205.9724 466.1777,-215.5867 468.6935,-205.2949 461.7264,-205.9724"/>
</g>
<!-- 23 -->
<g id="node24" class="node">
<title>23</title>
<ellipse fill="none" stroke="#000000" cx="458.9679" cy="-90" rx="73.9171" ry="18"/>
<text text-anchor="middle" x="458.9679" y="-85.8" font-family="Times,serif" font-size="14.00" fill="#000000">LeftHandMiddle3</text>
</g>
<!-- 23&#45;&gt;22 -->
<g id="edge23" class="edge">
<title>23&#45;&gt;22</title>
<path fill="none" stroke="#000000" d="M459.4726,-108.1686C459.6865,-115.869 459.9408,-125.0257 460.1785,-133.5834"/>
<polygon fill="#000000" stroke="#000000" points="456.68,-133.6878 460.4564,-143.5867 463.6773,-133.4934 456.68,-133.6878"/>
</g>
<!-- 24 -->
<g id="node25" class="node">
<title>24</title>
<ellipse fill="none" stroke="#000000" cx="455.9679" cy="-18" rx="83.9358" ry="18"/>
<text text-anchor="middle" x="455.9679" y="-13.8" font-family="Times,serif" font-size="14.00" fill="#000000">Bip01 L Finger2Nub</text>
</g>
<!-- 24&#45;&gt;23 -->
<g id="edge24" class="edge">
<title>24&#45;&gt;23</title>
<path fill="none" stroke="#000000" d="M456.7249,-36.1686C457.0458,-43.869 457.4273,-53.0257 457.7839,-61.5834"/>
<polygon fill="#000000" stroke="#000000" points="454.2873,-61.7411 458.2007,-71.5867 461.2812,-61.4497 454.2873,-61.7411"/>
</g>
<!-- 25 -->
<g id="node26" class="node">
<title>25</title>
<ellipse fill="none" stroke="#000000" cx="627.9679" cy="-234" rx="65.7235" ry="18"/>
<text text-anchor="middle" x="627.9679" y="-229.8" font-family="Times,serif" font-size="14.00" fill="#000000">LeftHandRing1</text>
</g>
<!-- 25&#45;&gt;12 -->
<g id="edge25" class="edge">
<title>25&#45;&gt;12</title>
<path fill="none" stroke="#000000" d="M608.6021,-251.4292C598.0819,-260.8974 584.9395,-272.7256 573.5821,-282.9472"/>
<polygon fill="#000000" stroke="#000000" points="571.1502,-280.4271 566.0587,-289.7183 575.833,-285.6302 571.1502,-280.4271"/>
</g>
<!-- 26 -->
<g id="node27" class="node">
<title>26</title>
<ellipse fill="none" stroke="#000000" cx="628.9679" cy="-162" rx="65.7235" ry="18"/>
<text text-anchor="middle" x="628.9679" y="-157.8" font-family="Times,serif" font-size="14.00" fill="#000000">LeftHandRing2</text>
</g>
<!-- 26&#45;&gt;25 -->
<g id="edge26" class="edge">
<title>26&#45;&gt;25</title>
<path fill="none" stroke="#000000" d="M628.7156,-180.1686C628.6086,-187.869 628.4814,-197.0257 628.3626,-205.5834"/>
<polygon fill="#000000" stroke="#000000" points="624.8629,-205.5391 628.2236,-215.5867 631.8623,-205.6363 624.8629,-205.5391"/>
</g>
<!-- 27 -->
<g id="node28" class="node">
<title>27</title>
<ellipse fill="none" stroke="#000000" cx="628.9679" cy="-90" rx="65.7235" ry="18"/>
<text text-anchor="middle" x="628.9679" y="-85.8" font-family="Times,serif" font-size="14.00" fill="#000000">LeftHandRing3</text>
</g>
<!-- 27&#45;&gt;26 -->
<g id="edge27" class="edge">
<title>27&#45;&gt;26</title>
<path fill="none" stroke="#000000" d="M628.9679,-108.1686C628.9679,-115.869 628.9679,-125.0257 628.9679,-133.5834"/>
<polygon fill="#000000" stroke="#000000" points="625.468,-133.5867 628.9679,-143.5867 632.468,-133.5868 625.468,-133.5867"/>
</g>
<!-- 28 -->
<g id="node29" class="node">
<title>28</title>
<ellipse fill="none" stroke="#000000" cx="641.9679" cy="-18" rx="83.9358" ry="18"/>
<text text-anchor="middle" x="641.9679" y="-13.8" font-family="Times,serif" font-size="14.00" fill="#000000">Bip01 L Finger3Nub</text>
</g>
<!-- 28&#45;&gt;27 -->
<g id="edge28" class="edge">
<title>28&#45;&gt;27</title>
<path fill="none" stroke="#000000" d="M638.6874,-36.1686C637.2971,-43.869 635.6438,-53.0257 634.0987,-61.5834"/>
<polygon fill="#000000" stroke="#000000" points="630.6251,-61.1239 632.2925,-71.5867 637.5137,-62.3678 630.6251,-61.1239"/>
</g>
<!-- 29 -->
<g id="node30" class="node">
<title>29</title>
<ellipse fill="none" stroke="#000000" cx="801.9679" cy="-234" rx="86.0051" ry="18"/>
<text text-anchor="middle" x="801.9679" y="-229.8" font-family="Times,serif" font-size="14.00" fill="#000000">LeftHandRingPinky1</text>
</g>
<!-- 29&#45;&gt;12 -->
<g id="edge29" class="edge">
<title>29&#45;&gt;12</title>
<path fill="none" stroke="#000000" d="M750.5672,-248.5703C704.439,-261.646 637.3902,-280.6519 593.2436,-293.1659"/>
<polygon fill="#000000" stroke="#000000" points="592.0312,-289.8716 583.3648,-295.9662 593.9403,-296.6063 592.0312,-289.8716"/>
</g>
<!-- 30 -->
<g id="node31" class="node">
<title>30</title>
<ellipse fill="none" stroke="#000000" cx="809.9679" cy="-162" rx="86.0051" ry="18"/>
<text text-anchor="middle" x="809.9679" y="-157.8" font-family="Times,serif" font-size="14.00" fill="#000000">LeftHandRingPinky2</text>
</g>
<!-- 30&#45;&gt;29 -->
<g id="edge30" class="edge">
<title>30&#45;&gt;29</title>
<path fill="none" stroke="#000000" d="M807.9492,-180.1686C807.0936,-187.869 806.0762,-197.0257 805.1253,-205.5834"/>
<polygon fill="#000000" stroke="#000000" points="801.6396,-205.2614 804.0138,-215.5867 808.5968,-206.0344 801.6396,-205.2614"/>
</g>
<!-- 31 -->
<g id="node32" class="node">
<title>31</title>
<ellipse fill="none" stroke="#000000" cx="813.9679" cy="-90" rx="86.0051" ry="18"/>
<text text-anchor="middle" x="813.9679" y="-85.8" font-family="Times,serif" font-size="14.00" fill="#000000">LeftHandRingPinky3</text>
</g>
<!-- 31&#45;&gt;30 -->
<g id="edge31" class="edge">
<title>31&#45;&gt;30</title>
<path fill="none" stroke="#000000" d="M812.9585,-108.1686C812.5307,-115.869 812.022,-125.0257 811.5466,-133.5834"/>
<polygon fill="#000000" stroke="#000000" points="808.051,-133.408 810.9909,-143.5867 815.0403,-133.7963 808.051,-133.408"/>
</g>
<!-- 32 -->
<g id="node33" class="node">
<title>32</title>
<ellipse fill="none" stroke="#000000" cx="827.9679" cy="-18" rx="83.9358" ry="18"/>
<text text-anchor="middle" x="827.9679" y="-13.8" font-family="Times,serif" font-size="14.00" fill="#000000">Bip01 L Finger4Nub</text>
</g>
<!-- 32&#45;&gt;31 -->
<g id="edge32" class="edge">
<title>32&#45;&gt;31</title>
<path fill="none" stroke="#000000" d="M824.4351,-36.1686C822.9378,-43.869 821.1574,-53.0257 819.4934,-61.5834"/>
<polygon fill="#000000" stroke="#000000" points="816.0214,-61.1025 817.5483,-71.5867 822.8927,-62.4386 816.0214,-61.1025"/>
</g>
<!-- 33 -->
<g id="node34" class="node">
<title>33</title>
<ellipse fill="none" stroke="#000000" cx="963.9679" cy="-522" rx="61.8909" ry="18"/>
<text text-anchor="middle" x="963.9679" y="-517.8" font-family="Times,serif" font-size="14.00" fill="#000000">RightShoulder</text>
</g>
<!-- 33&#45;&gt;6 -->
<g id="edge33" class="edge">
<title>33&#45;&gt;6</title>
<path fill="none" stroke="#000000" d="M947.507,-539.4292C938.6115,-548.8479 927.5103,-560.6022 917.8913,-570.787"/>
<polygon fill="#000000" stroke="#000000" points="915.2072,-568.5315 910.8855,-578.2049 920.2964,-573.3379 915.2072,-568.5315"/>
</g>
<!-- 34 -->
<g id="node35" class="node">
<title>34</title>
<ellipse fill="none" stroke="#000000" cx="1109.9679" cy="-450" rx="45.9459" ry="18"/>
<text text-anchor="middle" x="1109.9679" y="-445.8" font-family="Times,serif" font-size="14.00" fill="#000000">RightArm</text>
</g>
<!-- 34&#45;&gt;33 -->
<g id="edge34" class="edge">
<title>34&#45;&gt;33</title>
<path fill="none" stroke="#000000" d="M1081.123,-464.2249C1059.2373,-475.0178 1028.8701,-489.9934 1004.537,-501.9933"/>
<polygon fill="#000000" stroke="#000000" points="1002.9574,-498.8698 995.5367,-506.4318 1006.0535,-505.1479 1002.9574,-498.8698"/>
</g>
<!-- 35 -->
<g id="node36" class="node">
<title>35</title>
<ellipse fill="none" stroke="#000000" cx="1182.9679" cy="-378" rx="62.3667" ry="18"/>
<text text-anchor="middle" x="1182.9679" y="-373.8" font-family="Times,serif" font-size="14.00" fill="#000000">RightForeArm</text>
</g>
<!-- 35&#45;&gt;34 -->
<g id="edge35" class="edge">
<title>35&#45;&gt;34</title>
<path fill="none" stroke="#000000" d="M1165.2966,-395.4292C1156.0161,-404.5826 1144.4991,-415.9418 1134.3796,-425.9227"/>
<polygon fill="#000000" stroke="#000000" points="1131.6357,-423.713 1126.9738,-433.2271 1136.5512,-428.6968 1131.6357,-423.713"/>
</g>
<!-- 36 -->
<g id="node37" class="node">
<title>36</title>
<ellipse fill="none" stroke="#000000" cx="1302.9679" cy="-306" rx="48.8359" ry="18"/>
<text text-anchor="middle" x="1302.9679" y="-301.8" font-family="Times,serif" font-size="14.00" fill="#000000">RightHand</text>
</g>
<!-- 36&#45;&gt;35 -->
<g id="edge36" class="edge">
<title>36&#45;&gt;35</title>
<path fill="none" stroke="#000000" d="M1277.2249,-321.4458C1260.2217,-331.6477 1237.6987,-345.1615 1218.9334,-356.4207"/>
<polygon fill="#000000" stroke="#000000" points="1217.1115,-353.4321 1210.3373,-361.5783 1220.713,-359.4346 1217.1115,-353.4321"/>
</g>
<!-- 37 -->
<g id="node38" class="node">
<title>37</title>
<ellipse fill="none" stroke="#000000" cx="1035.9679" cy="-234" rx="78.7712" ry="18"/>
<text text-anchor="middle" x="1035.9679" y="-229.8" font-family="Times,serif" font-size="14.00" fill="#000000">RightHandThumb1</text>
</g>
<!-- 37&#45;&gt;36 -->
<g id="edge37" class="edge">
<title>37&#45;&gt;36</title>
<path fill="none" stroke="#000000" d="M1087.1323,-247.7971C1135.0555,-260.7202 1206.2025,-279.906 1253.5508,-292.6741"/>
<polygon fill="#000000" stroke="#000000" points="1252.7099,-296.0722 1263.2763,-295.2966 1254.5325,-289.3137 1252.7099,-296.0722"/>
</g>
<!-- 38 -->
<g id="node39" class="node">
<title>38</title>
<ellipse fill="none" stroke="#000000" cx="1028.9679" cy="-162" rx="78.7712" ry="18"/>
<text text-anchor="middle" x="1028.9679" y="-157.8" font-family="Times,serif" font-size="14.00" fill="#000000">RightHandThumb2</text>
</g>
<!-- 38&#45;&gt;37 -->
<g id="edge38" class="edge">
<title>38&#45;&gt;37</title>
<path fill="none" stroke="#000000" d="M1030.7343,-180.1686C1031.4829,-187.869 1032.3732,-197.0257 1033.2052,-205.5834"/>
<polygon fill="#000000" stroke="#000000" points="1029.7264,-205.9724 1034.1777,-215.5867 1036.6935,-205.2949 1029.7264,-205.9724"/>
</g>
<!-- 39 -->
<g id="node40" class="node">
<title>39</title>
<ellipse fill="none" stroke="#000000" cx="1019.9679" cy="-90" rx="78.7712" ry="18"/>
<text text-anchor="middle" x="1019.9679" y="-85.8" font-family="Times,serif" font-size="14.00" fill="#000000">RightHandThumb3</text>
</g>
<!-- 39&#45;&gt;38 -->
<g id="edge39" class="edge">
<title>39&#45;&gt;38</title>
<path fill="none" stroke="#000000" d="M1022.239,-108.1686C1023.2015,-115.869 1024.3461,-125.0257 1025.4158,-133.5834"/>
<polygon fill="#000000" stroke="#000000" points="1021.9528,-134.0981 1026.6662,-143.5867 1028.8988,-133.2298 1021.9528,-134.0981"/>
</g>
<!-- 40 -->
<g id="node41" class="node">
<title>40</title>
<ellipse fill="none" stroke="#000000" cx="1014.9679" cy="-18" rx="84.5772" ry="18"/>
<text text-anchor="middle" x="1014.9679" y="-13.8" font-family="Times,serif" font-size="14.00" fill="#000000">Bip01 R Finger0Nub</text>
</g>
<!-- 40&#45;&gt;39 -->
<g id="edge40" class="edge">
<title>40&#45;&gt;39</title>
<path fill="none" stroke="#000000" d="M1016.2296,-36.1686C1016.7644,-43.869 1017.4002,-53.0257 1017.9945,-61.5834"/>
<polygon fill="#000000" stroke="#000000" points="1014.5047,-61.8533 1018.6892,-71.5867 1021.4879,-61.3683 1014.5047,-61.8533"/>
</g>
<!-- 41 -->
<g id="node42" class="node">
<title>41</title>
<ellipse fill="none" stroke="#000000" cx="1216.9679" cy="-234" rx="73.4498" ry="18"/>
<text text-anchor="middle" x="1216.9679" y="-229.8" font-family="Times,serif" font-size="14.00" fill="#000000">RightHandIndex1</text>
</g>
<!-- 41&#45;&gt;36 -->
<g id="edge41" class="edge">
<title>41&#45;&gt;36</title>
<path fill="none" stroke="#000000" d="M1237.7861,-251.4292C1249.1225,-260.9201 1263.2914,-272.7825 1275.5207,-283.0209"/>
<polygon fill="#000000" stroke="#000000" points="1273.3133,-285.7375 1283.2276,-289.4733 1277.8068,-280.3702 1273.3133,-285.7375"/>
</g>
<!-- 42 -->
<g id="node43" class="node">
<title>42</title>
<ellipse fill="none" stroke="#000000" cx="1207.9679" cy="-162" rx="73.4498" ry="18"/>
<text text-anchor="middle" x="1207.9679" y="-157.8" font-family="Times,serif" font-size="14.00" fill="#000000">RightHandIndex2</text>
</g>
<!-- 42&#45;&gt;41 -->
<g id="edge42" class="edge">
<title>42&#45;&gt;41</title>
<path fill="none" stroke="#000000" d="M1210.239,-180.1686C1211.2015,-187.869 1212.3461,-197.0257 1213.4158,-205.5834"/>
<polygon fill="#000000" stroke="#000000" points="1209.9528,-206.0981 1214.6662,-215.5867 1216.8988,-205.2298 1209.9528,-206.0981"/>
</g>
<!-- 43 -->
<g id="node44" class="node">
<title>43</title>
<ellipse fill="none" stroke="#000000" cx="1203.9679" cy="-90" rx="73.4498" ry="18"/>
<text text-anchor="middle" x="1203.9679" y="-85.8" font-family="Times,serif" font-size="14.00" fill="#000000">RightHandIndex3</text>
</g>
<!-- 43&#45;&gt;42 -->
<g id="edge43" class="edge">
<title>43&#45;&gt;42</title>
<path fill="none" stroke="#000000" d="M1204.9773,-108.1686C1205.4051,-115.869 1205.9138,-125.0257 1206.3892,-133.5834"/>
<polygon fill="#000000" stroke="#000000" points="1202.8955,-133.7963 1206.9449,-143.5867 1209.8848,-133.408 1202.8955,-133.7963"/>
</g>
<!-- 44 -->
<g id="node45" class="node">
<title>44</title>
<ellipse fill="none" stroke="#000000" cx="1202.9679" cy="-18" rx="84.5772" ry="18"/>
<text text-anchor="middle" x="1202.9679" y="-13.8" font-family="Times,serif" font-size="14.00" fill="#000000">Bip01 R Finger1Nub</text>
</g>
<!-- 44&#45;&gt;43 -->
<g id="edge44" class="edge">
<title>44&#45;&gt;43</title>
<path fill="none" stroke="#000000" d="M1203.2202,-36.1686C1203.3272,-43.869 1203.4544,-53.0257 1203.5732,-61.5834"/>
<polygon fill="#000000" stroke="#000000" points="1200.0735,-61.6363 1203.7122,-71.5867 1207.0728,-61.5391 1200.0735,-61.6363"/>
</g>
<!-- 45 -->
<g id="node46" class="node">
<title>45</title>
<ellipse fill="none" stroke="#000000" cx="1388.9679" cy="-234" rx="78.7712" ry="18"/>
<text text-anchor="middle" x="1388.9679" y="-229.8" font-family="Times,serif" font-size="14.00" fill="#000000">RightHandMiddle1</text>
</g>
<!-- 45&#45;&gt;36 -->
<g id="edge45" class="edge">
<title>45&#45;&gt;36</title>
<path fill="none" stroke="#000000" d="M1368.1497,-251.4292C1356.8133,-260.9201 1342.6444,-272.7825 1330.4151,-283.0209"/>
<polygon fill="#000000" stroke="#000000" points="1328.129,-280.3702 1322.7082,-289.4733 1332.6225,-285.7375 1328.129,-280.3702"/>
</g>
<!-- 46 -->
<g id="node47" class="node">
<title>46</title>
<ellipse fill="none" stroke="#000000" cx="1389.9679" cy="-162" rx="78.7712" ry="18"/>
<text text-anchor="middle" x="1389.9679" y="-157.8" font-family="Times,serif" font-size="14.00" fill="#000000">RightHandMiddle2</text>
</g>
<!-- 46&#45;&gt;45 -->
<g id="edge46" class="edge">
<title>46&#45;&gt;45</title>
<path fill="none" stroke="#000000" d="M1389.7156,-180.1686C1389.6086,-187.869 1389.4814,-197.0257 1389.3626,-205.5834"/>
<polygon fill="#000000" stroke="#000000" points="1385.8629,-205.5391 1389.2236,-215.5867 1392.8623,-205.6363 1385.8629,-205.5391"/>
</g>
<!-- 47 -->
<g id="node48" class="node">
<title>47</title>
<ellipse fill="none" stroke="#000000" cx="1389.9679" cy="-90" rx="78.7712" ry="18"/>
<text text-anchor="middle" x="1389.9679" y="-85.8" font-family="Times,serif" font-size="14.00" fill="#000000">RightHandMiddle3</text>
</g>
<!-- 47&#45;&gt;46 -->
<g id="edge47" class="edge">
<title>47&#45;&gt;46</title>
<path fill="none" stroke="#000000" d="M1389.9679,-108.1686C1389.9679,-115.869 1389.9679,-125.0257 1389.9679,-133.5834"/>
<polygon fill="#000000" stroke="#000000" points="1386.468,-133.5867 1389.9679,-143.5867 1393.468,-133.5868 1386.468,-133.5867"/>
</g>
<!-- 48 -->
<g id="node49" class="node">
<title>48</title>
<ellipse fill="none" stroke="#000000" cx="1390.9679" cy="-18" rx="84.5772" ry="18"/>
<text text-anchor="middle" x="1390.9679" y="-13.8" font-family="Times,serif" font-size="14.00" fill="#000000">Bip01 R Finger2Nub</text>
</g>
<!-- 48&#45;&gt;47 -->
<g id="edge48" class="edge">
<title>48&#45;&gt;47</title>
<path fill="none" stroke="#000000" d="M1390.7156,-36.1686C1390.6086,-43.869 1390.4814,-53.0257 1390.3626,-61.5834"/>
<polygon fill="#000000" stroke="#000000" points="1386.8629,-61.5391 1390.2236,-71.5867 1393.8623,-61.6363 1386.8629,-61.5391"/>
</g>
<!-- 49 -->
<g id="node50" class="node">
<title>49</title>
<ellipse fill="none" stroke="#000000" cx="1566.9679" cy="-234" rx="70.5772" ry="18"/>
<text text-anchor="middle" x="1566.9679" y="-229.8" font-family="Times,serif" font-size="14.00" fill="#000000">RightHandRing1</text>
</g>
<!-- 49&#45;&gt;36 -->
<g id="edge49" class="edge">
<title>49&#45;&gt;36</title>
<path fill="none" stroke="#000000" d="M1518.5462,-247.2059C1471.2959,-260.0924 1399.7738,-279.5984 1352.2361,-292.5632"/>
<polygon fill="#000000" stroke="#000000" points="1351.2002,-289.2178 1342.4735,-295.2257 1353.0421,-295.9712 1351.2002,-289.2178"/>
</g>
<!-- 50 -->
<g id="node51" class="node">
<title>50</title>
<ellipse fill="none" stroke="#000000" cx="1571.9679" cy="-162" rx="70.5772" ry="18"/>
<text text-anchor="middle" x="1571.9679" y="-157.8" font-family="Times,serif" font-size="14.00" fill="#000000">RightHandRing2</text>
</g>
<!-- 50&#45;&gt;49 -->
<g id="edge50" class="edge">
<title>50&#45;&gt;49</title>
<path fill="none" stroke="#000000" d="M1570.7062,-180.1686C1570.1714,-187.869 1569.5356,-197.0257 1568.9413,-205.5834"/>
<polygon fill="#000000" stroke="#000000" points="1565.4479,-205.3683 1568.2466,-215.5867 1572.4311,-205.8533 1565.4479,-205.3683"/>
</g>
<!-- 51 -->
<g id="node52" class="node">
<title>51</title>
<ellipse fill="none" stroke="#000000" cx="1573.9679" cy="-90" rx="70.5772" ry="18"/>
<text text-anchor="middle" x="1573.9679" y="-85.8" font-family="Times,serif" font-size="14.00" fill="#000000">RightHandRing3</text>
</g>
<!-- 51&#45;&gt;50 -->
<g id="edge51" class="edge">
<title>51&#45;&gt;50</title>
<path fill="none" stroke="#000000" d="M1573.4632,-108.1686C1573.2493,-115.869 1572.995,-125.0257 1572.7572,-133.5834"/>
<polygon fill="#000000" stroke="#000000" points="1569.2585,-133.4934 1572.4794,-143.5867 1576.2558,-133.6878 1569.2585,-133.4934"/>
</g>
<!-- 52 -->
<g id="node53" class="node">
<title>52</title>
<ellipse fill="none" stroke="#000000" cx="1578.9679" cy="-18" rx="84.5772" ry="18"/>
<text text-anchor="middle" x="1578.9679" y="-13.8" font-family="Times,serif" font-size="14.00" fill="#000000">Bip01 R Finger3Nub</text>
</g>
<!-- 52&#45;&gt;51 -->
<g id="edge52" class="edge">
<title>52&#45;&gt;51</title>
<path fill="none" stroke="#000000" d="M1577.7062,-36.1686C1577.1714,-43.869 1576.5356,-53.0257 1575.9413,-61.5834"/>
<polygon fill="#000000" stroke="#000000" points="1572.4479,-61.3683 1575.2466,-71.5867 1579.4311,-61.8533 1572.4479,-61.3683"/>
</g>
<!-- 53 -->
<g id="node54" class="node">
<title>53</title>
<ellipse fill="none" stroke="#000000" cx="1738.9679" cy="-234" rx="73.9603" ry="18"/>
<text text-anchor="middle" x="1738.9679" y="-229.8" font-family="Times,serif" font-size="14.00" fill="#000000">RightHandPinky1</text>
</g>
<!-- 53&#45;&gt;36 -->
<g id="edge53" class="edge">
<title>53&#45;&gt;36</title>
<path fill="none" stroke="#000000" d="M1681.6104,-245.5669C1670.1501,-247.7807 1658.1875,-250.0225 1646.9679,-252 1545.6022,-269.8658 1426.9078,-287.853 1358.7714,-297.8976"/>
<polygon fill="#000000" stroke="#000000" points="1358.0713,-294.4628 1348.687,-299.3806 1359.0899,-301.3883 1358.0713,-294.4628"/>
</g>
<!-- 54 -->
<g id="node55" class="node">
<title>54</title>
<ellipse fill="none" stroke="#000000" cx="1755.9679" cy="-162" rx="73.9603" ry="18"/>
<text text-anchor="middle" x="1755.9679" y="-157.8" font-family="Times,serif" font-size="14.00" fill="#000000">RightHandPinky2</text>
</g>
<!-- 54&#45;&gt;53 -->
<g id="edge54" class="edge">
<title>54&#45;&gt;53</title>
<path fill="none" stroke="#000000" d="M1751.6781,-180.1686C1749.8599,-187.869 1747.698,-197.0257 1745.6774,-205.5834"/>
<polygon fill="#000000" stroke="#000000" points="1742.2071,-205.05 1743.3155,-215.5867 1749.0198,-206.6586 1742.2071,-205.05"/>
</g>
<!-- 55 -->
<g id="node56" class="node">
<title>55</title>
<ellipse fill="none" stroke="#000000" cx="1763.9679" cy="-90" rx="73.9603" ry="18"/>
<text text-anchor="middle" x="1763.9679" y="-85.8" font-family="Times,serif" font-size="14.00" fill="#000000">RightHandPinky3</text>
</g>
<!-- 55&#45;&gt;54 -->
<g id="edge55" class="edge">
<title>55&#45;&gt;54</title>
<path fill="none" stroke="#000000" d="M1761.9492,-108.1686C1761.0936,-115.869 1760.0762,-125.0257 1759.1253,-133.5834"/>
<polygon fill="#000000" stroke="#000000" points="1755.6396,-133.2614 1758.0138,-143.5867 1762.5968,-134.0344 1755.6396,-133.2614"/>
</g>
<!-- 56 -->
<g id="node57" class="node">
<title>56</title>
<ellipse fill="none" stroke="#000000" cx="1766.9679" cy="-18" rx="84.5772" ry="18"/>
<text text-anchor="middle" x="1766.9679" y="-13.8" font-family="Times,serif" font-size="14.00" fill="#000000">Bip01 R Finger4Nub</text>
</g>
<!-- 56&#45;&gt;55 -->
<g id="edge56" class="edge">
<title>56&#45;&gt;55</title>
<path fill="none" stroke="#000000" d="M1766.2109,-36.1686C1765.89,-43.869 1765.5085,-53.0257 1765.1519,-61.5834"/>
<polygon fill="#000000" stroke="#000000" points="1761.6546,-61.4497 1764.7351,-71.5867 1768.6485,-61.7411 1761.6546,-61.4497"/>
</g>
<!-- 57 -->
<g id="node58" class="node">
<title>57</title>
<ellipse fill="none" stroke="#000000" cx="1117.9679" cy="-810" rx="49.286" ry="18"/>
<text text-anchor="middle" x="1117.9679" y="-805.8" font-family="Times,serif" font-size="14.00" fill="#000000">LeftUpLeg</text>
</g>
<!-- 57&#45;&gt;2 -->
<g id="edge57" class="edge">
<title>57&#45;&gt;2</title>
<path fill="none" stroke="#000000" d="M1117.9679,-828.1686C1117.9679,-835.869 1117.9679,-845.0257 1117.9679,-853.5834"/>
<polygon fill="#000000" stroke="#000000" points="1114.468,-853.5867 1117.9679,-863.5867 1121.468,-853.5868 1114.468,-853.5867"/>
</g>
<!-- 58 -->
<g id="node59" class="node">
<title>58</title>
<ellipse fill="none" stroke="#000000" cx="1117.9679" cy="-738" rx="38.6695" ry="18"/>
<text text-anchor="middle" x="1117.9679" y="-733.8" font-family="Times,serif" font-size="14.00" fill="#000000">LeftLeg</text>
</g>
<!-- 58&#45;&gt;57 -->
<g id="edge58" class="edge">
<title>58&#45;&gt;57</title>
<path fill="none" stroke="#000000" d="M1117.9679,-756.1686C1117.9679,-763.869 1117.9679,-773.0257 1117.9679,-781.5834"/>
<polygon fill="#000000" stroke="#000000" points="1114.468,-781.5867 1117.9679,-791.5867 1121.468,-781.5868 1114.468,-781.5867"/>
</g>
<!-- 59 -->
<g id="node60" class="node">
<title>59</title>
<ellipse fill="none" stroke="#000000" cx="1117.9679" cy="-666" rx="41.1093" ry="18"/>
<text text-anchor="middle" x="1117.9679" y="-661.8" font-family="Times,serif" font-size="14.00" fill="#000000">LeftFoot</text>
</g>
<!-- 59&#45;&gt;58 -->
<g id="edge59" class="edge">
<title>59&#45;&gt;58</title>
<path fill="none" stroke="#000000" d="M1117.9679,-684.1686C1117.9679,-691.869 1117.9679,-701.0257 1117.9679,-709.5834"/>
<polygon fill="#000000" stroke="#000000" points="1114.468,-709.5867 1117.9679,-719.5867 1121.468,-709.5868 1114.468,-709.5867"/>
</g>
<!-- 60 -->
<g id="node61" class="node">
<title>60</title>
<ellipse fill="none" stroke="#000000" cx="1117.9679" cy="-594" rx="71.0445" ry="18"/>
<text text-anchor="middle" x="1117.9679" y="-589.8" font-family="Times,serif" font-size="14.00" fill="#000000">LeftFootThumb1</text>
</g>
<!-- 60&#45;&gt;59 -->
<g id="edge60" class="edge">
<title>60&#45;&gt;59</title>
<path fill="none" stroke="#000000" d="M1117.9679,-612.1686C1117.9679,-619.869 1117.9679,-629.0257 1117.9679,-637.5834"/>
<polygon fill="#000000" stroke="#000000" points="1114.468,-637.5867 1117.9679,-647.5867 1121.468,-637.5868 1114.468,-637.5867"/>
</g>
<!-- 61 -->
<g id="node62" class="node">
<title>61</title>
<ellipse fill="none" stroke="#000000" cx="1117.9679" cy="-522" rx="73.7101" ry="18"/>
<text text-anchor="middle" x="1117.9679" y="-517.8" font-family="Times,serif" font-size="14.00" fill="#000000">Bip01 L Toe0Nub</text>
</g>
<!-- 61&#45;&gt;60 -->
<g id="edge61" class="edge">
<title>61&#45;&gt;60</title>
<path fill="none" stroke="#000000" d="M1117.9679,-540.1686C1117.9679,-547.869 1117.9679,-557.0257 1117.9679,-565.5834"/>
<polygon fill="#000000" stroke="#000000" points="1114.468,-565.5867 1117.9679,-575.5867 1121.468,-565.5868 1114.468,-565.5867"/>
</g>
<!-- 62 -->
<g id="node63" class="node">
<title>62</title>
<ellipse fill="none" stroke="#000000" cx="1250.9679" cy="-810" rx="54.1403" ry="18"/>
<text text-anchor="middle" x="1250.9679" y="-805.8" font-family="Times,serif" font-size="14.00" fill="#000000">RightUpLeg</text>
</g>
<!-- 62&#45;&gt;2 -->
<g id="edge62" class="edge">
<title>62&#45;&gt;2</title>
<path fill="none" stroke="#000000" d="M1222.4361,-825.4458C1201.0643,-837.0155 1171.8244,-852.8446 1149.7138,-864.8143"/>
<polygon fill="#000000" stroke="#000000" points="1147.8459,-861.8455 1140.718,-869.6841 1151.1784,-868.0013 1147.8459,-861.8455"/>
</g>
<!-- 63 -->
<g id="node64" class="node">
<title>63</title>
<ellipse fill="none" stroke="#000000" cx="1255.9679" cy="-738" rx="43.5233" ry="18"/>
<text text-anchor="middle" x="1255.9679" y="-733.8" font-family="Times,serif" font-size="14.00" fill="#000000">RightLeg</text>
</g>
<!-- 63&#45;&gt;62 -->
<g id="edge63" class="edge">
<title>63&#45;&gt;62</title>
<path fill="none" stroke="#000000" d="M1254.7062,-756.1686C1254.1714,-763.869 1253.5356,-773.0257 1252.9413,-781.5834"/>
<polygon fill="#000000" stroke="#000000" points="1249.4479,-781.3683 1252.2466,-791.5867 1256.4311,-781.8533 1249.4479,-781.3683"/>
</g>
<!-- 64 -->
<g id="node65" class="node">
<title>64</title>
<ellipse fill="none" stroke="#000000" cx="1277.9679" cy="-666" rx="45.9632" ry="18"/>
<text text-anchor="middle" x="1277.9679" y="-661.8" font-family="Times,serif" font-size="14.00" fill="#000000">RightFoot</text>
</g>
<!-- 64&#45;&gt;63 -->
<g id="edge64" class="edge">
<title>64&#45;&gt;63</title>
<path fill="none" stroke="#000000" d="M1272.4164,-684.1686C1270.001,-692.0734 1267.1168,-701.5128 1264.4429,-710.2635"/>
<polygon fill="#000000" stroke="#000000" points="1261.0165,-709.5003 1261.4414,-720.0866 1267.7109,-711.5459 1261.0165,-709.5003"/>
</g>
<!-- 65 -->
<g id="node66" class="node">
<title>65</title>
<ellipse fill="none" stroke="#000000" cx="1283.9679" cy="-594" rx="75.8984" ry="18"/>
<text text-anchor="middle" x="1283.9679" y="-589.8" font-family="Times,serif" font-size="14.00" fill="#000000">RightFootThumb1</text>
</g>
<!-- 65&#45;&gt;64 -->
<g id="edge65" class="edge">
<title>65&#45;&gt;64</title>
<path fill="none" stroke="#000000" d="M1282.4538,-612.1686C1281.8121,-619.869 1281.0491,-629.0257 1280.336,-637.5834"/>
<polygon fill="#000000" stroke="#000000" points="1276.845,-637.3306 1279.5023,-647.5867 1283.8208,-637.912 1276.845,-637.3306"/>
</g>
<!-- 66 -->
<g id="node67" class="node">
<title>66</title>
<ellipse fill="none" stroke="#000000" cx="1284.9679" cy="-522" rx="74.8511" ry="18"/>
<text text-anchor="middle" x="1284.9679" y="-517.8" font-family="Times,serif" font-size="14.00" fill="#000000">Bip01 R Toe0Nub</text>
</g>
<!-- 66&#45;&gt;65 -->
<g id="edge66" class="edge">
<title>66&#45;&gt;65</title>
<path fill="none" stroke="#000000" d="M1284.7156,-540.1686C1284.6086,-547.869 1284.4814,-557.0257 1284.3626,-565.5834"/>
<polygon fill="#000000" stroke="#000000" points="1280.8629,-565.5391 1284.2236,-575.5867 1287.8623,-565.6363 1280.8629,-565.5391"/>
</g>
</g>
</svg>
